<?xml version="1.0" standalone="no"?>
<!DOCTYPE svg PUBLIC "-//W3C//DTD SVG 20010904//EN"
 "http://www.w3.org/TR/2001/REC-SVG-20010904/DTD/svg10.dtd">
<svg version="1.0" xmlns="http://www.w3.org/2000/svg"
 width="512.000000pt" height="512.000000pt" viewBox="0 0 512.000000 512.000000"
 preserveAspectRatio="xMidYMid meet">
<metadata>
Created by potrace 1.14, written by Peter Selinger 2001-2017
</metadata>
<g transform="translate(0.000000,512.000000) scale(0.100000,-0.100000)"
fill="#000000" stroke="none">
<path d="M3909 2848 c-37 -12 -46 -66 -14 -74 19 -5 22 -11 19 -45 -3 -38 7
-51 23 -27 4 7 7 21 8 30 0 10 5 17 10 15 16 -3 11 -32 -35 -199 -35 -125 -47
-158 -63 -162 -10 -2 -16 -9 -13 -14 6 -11 -19 -10 -30 0 -9 10 -35 -3 -28
-13 3 -5 2 -9 -3 -8 -4 1 -12 0 -18 -1 -5 -1 -49 -3 -97 -3 -81 -2 -107 4 -75
16 9 4 9 6 0 6 -6 1 -15 -3 -18 -9 -9 -15 -48 -13 -39 3 6 10 4 10 -7 0 -15
-15 -33 -17 -25 -4 3 5 -1 11 -9 14 -8 4 -12 1 -9 -6 3 -9 -12 -12 -58 -10
-82 3 -98 7 -110 24 -8 11 -9 11 -4 -3 5 -16 -3 -17 -87 -12 -51 3 -111 6
-134 6 -24 1 -43 5 -43 9 0 5 -5 9 -11 9 -5 0 -7 -6 -3 -12 6 -10 4 -10 -8 0
-11 9 -18 10 -23 2 -4 -7 -12 -7 -26 0 -10 6 -19 8 -19 5 0 -3 -10 -1 -21 6
-12 6 -19 7 -15 1 3 -6 -30 -8 -91 -6 -64 2 -99 8 -105 16 -6 10 -8 10 -8 1 0
-7 -5 -13 -11 -13 -5 0 -7 5 -3 12 5 7 3 8 -7 2 -8 -5 -31 -9 -51 -10 -29 0
-38 4 -43 20 -6 21 -6 21 -21 -1 -14 -19 -19 -21 -38 -11 -27 15 -55 17 -62 6
-3 -5 -13 -1 -21 9 -12 15 -14 15 -10 1 4 -11 1 -15 -11 -13 -9 2 -21 4 -25 4
-5 1 -5 7 -1 14 6 10 4 10 -7 0 -18 -18 -32 -16 -25 2 4 13 2 14 -14 5 -11 -6
-20 -13 -20 -16 0 -3 5 -2 12 2 6 4 8 3 5 -4 -4 -5 -16 -8 -27 -5 -11 3 -18 9
-15 13 3 4 -2 10 -10 13 -9 4 -12 1 -9 -7 4 -10 -3 -14 -20 -12 -14 0 -26 4
-26 8 0 4 -11 3 -25 -2 -16 -6 -25 -6 -25 0 0 6 5 10 10 10 6 0 10 5 10 11 0
8 -6 7 -16 -2 -24 -20 -137 -19 -146 1 -5 12 -7 12 -7 -2 -1 -19 -31 -25 -31
-7 0 8 -5 7 -15 -1 -13 -11 -14 -10 -9 4 3 9 1 16 -5 16 -6 0 -11 -7 -11 -15
0 -8 -4 -15 -10 -15 -5 0 -7 6 -4 14 3 8 1 17 -5 21 -6 3 -11 0 -12 -7 0 -7
-4 -4 -9 7 -5 12 -9 14 -9 6 -1 -11 -5 -10 -17 5 -8 10 -12 12 -8 4 6 -11 2
-10 -13 3 -21 19 -38 23 -28 7 3 -5 1 -10 -4 -10 -6 0 -11 5 -11 10 0 6 -5 10
-11 10 -5 0 -7 -4 -4 -10 3 -5 1 -10 -4 -10 -6 0 -11 6 -11 13 0 8 -2 9 -8 1
-9 -14 -78 -11 -75 3 4 20 -34 2 -47 -23 -13 -24 -37 -35 -25 -11 4 6 0 4 -8
-6 -11 -14 -16 -15 -21 -5 -5 10 -7 10 -12 1 -3 -7 -10 -13 -15 -13 -6 0 -7 6
-3 13 5 8 2 8 -9 -2 -12 -9 -17 -10 -17 -2 0 7 -4 10 -10 6 -5 -3 -7 -13 -4
-23 5 -13 4 -14 -4 -3 -5 7 -14 11 -20 7 -6 -3 -13 0 -15 6 -3 8 -6 5 -6 -6
-1 -15 -4 -16 -16 -6 -9 7 -18 10 -22 6 -3 -3 -1 -6 5 -6 7 0 12 -3 12 -7 0
-8 -23 -11 -127 -16 -29 -1 -53 -6 -53 -10 0 -5 -6 -5 -12 0 -19 11 -39 13
-32 2 3 -5 10 -7 15 -4 5 4 9 2 9 -3 0 -6 -10 -10 -22 -9 -13 0 -31 -3 -40 -7
-12 -5 -18 -4 -18 4 0 6 4 9 8 6 4 -2 14 -1 22 5 12 7 10 9 -7 9 -12 0 -25 -5
-28 -10 -4 -6 -16 -8 -28 -5 -16 5 -18 4 -8 -3 11 -8 11 -11 0 -18 -7 -4 -14
-3 -17 4 -4 14 -62 16 -62 2 0 -5 8 -7 18 -3 9 3 14 3 11 -1 -4 -4 -19 -9 -35
-12 -16 -2 -35 -7 -41 -9 -7 -2 -13 0 -13 4 0 5 6 11 13 14 6 2 -3 4 -20 4
-18 0 -33 -4 -33 -9 0 -5 4 -7 9 -3 5 3 12 1 16 -5 4 -6 -10 -10 -35 -10 -30
0 -39 3 -34 13 4 6 -3 2 -15 -10 -24 -26 -40 -31 -21 -8 16 19 6 20 -13 1 -19
-20 -68 -26 -86 -12 -11 8 -13 8 -8 0 9 -15 -23 -28 -37 -14 -5 5 -17 10 -25
9 -11 0 -10 -3 4 -9 11 -5 15 -9 8 -9 -6 -1 -19 -4 -27 -7 -12 -5 -15 -2 -10
12 4 12 3 15 -3 7 -17 -24 -114 -83 -125 -77 -7 4 -8 3 -4 -4 8 -13 -19 -29
-65 -37 -19 -3 -57 -22 -86 -42 -45 -31 -50 -38 -40 -54 19 -30 39 -27 91 13
27 21 56 39 65 39 9 1 26 3 38 4 19 2 77 40 130 85 7 6 35 13 63 15 28 3 54 6
58 6 17 3 32 -2 31 -8 -5 -29 3 -53 17 -53 11 0 14 7 11 29 -3 16 -3 32 0 35
4 4 34 -11 62 -31 2 -1 4 -22 5 -45 1 -31 6 -44 17 -46 13 -2 15 5 12 40 -2
24 -5 50 -7 59 -2 9 2 16 8 16 6 0 26 3 44 7 17 3 47 8 65 11 17 3 46 8 62 11
37 7 57 10 115 18 25 4 81 13 125 21 44 8 94 17 110 19 17 3 46 8 65 12 19 3
46 8 60 10 14 1 40 6 58 9 31 6 32 5 32 -25 0 -21 4 -30 13 -27 6 2 11 18 11
35 -1 32 -3 31 69 23 4 -1 7 -14 7 -31 0 -20 5 -30 15 -30 12 0 14 8 10 31
l-6 31 143 -7 c79 -3 175 -8 213 -10 39 -2 129 -7 200 -10 178 -7 287 -15 294
-20 4 -2 6 -24 6 -49 -1 -29 3 -46 10 -46 15 0 39 45 40 73 0 25 -15 24 200
13 277 -13 350 -17 355 -22 3 -3 6 -22 6 -42 3 -59 3 -62 17 -57 6 3 13 24 15
47 1 22 4 44 7 47 2 4 23 6 47 5 24 -2 99 -5 167 -8 69 -4 127 -9 130 -12 3
-3 6 -26 6 -52 0 -28 5 -47 13 -50 7 -2 12 0 11 5 -1 4 -1 25 0 45 1 35 3 38
29 37 53 -3 58 -7 58 -49 -1 -22 4 -40 9 -40 11 0 12 3 14 60 1 36 4 40 26 40
20 0 25 -5 25 -24 0 -14 5 -28 10 -31 6 -4 10 5 10 20 0 18 7 28 26 35 14 6
30 8 35 4 5 -3 9 -1 9 4 0 5 8 8 18 7 26 -2 112 -43 112 -53 0 -5 6 -9 13 -10
6 -1 31 -5 54 -8 24 -3 40 -10 37 -15 -3 -5 2 -6 11 -2 10 3 20 2 24 -3 3 -5
25 -19 48 -31 32 -18 44 -20 50 -10 14 23 12 41 -8 60 -10 10 -19 15 -19 11 0
-4 -8 0 -17 8 -26 22 -53 31 -97 34 -21 1 -42 7 -46 14 -4 6 -11 12 -16 13 -5
1 -8 5 -7 9 2 4 -3 5 -11 2 -7 -3 -20 2 -29 10 -9 9 -21 16 -27 16 -6 0 -9 4
-6 9 3 4 -6 6 -19 3 -18 -3 -25 0 -25 11 0 9 4 18 9 21 4 3 7 22 6 42 -1 21 4
38 11 41 7 3 40 -9 72 -27 33 -17 77 -33 98 -34 21 -2 58 -13 81 -24 52 -27
53 -27 53 -2 0 11 -3 19 -7 18 -13 -3 -63 24 -58 31 2 4 -4 7 -13 8 -99 10
-132 18 -132 34 0 5 -3 8 -7 8 -20 -3 -34 2 -28 11 4 6 -1 7 -11 3 -12 -4 -15
-3 -10 5 5 8 1 10 -10 5 -13 -5 -15 -3 -9 8 7 11 5 11 -10 -1 -17 -14 -18 -13
-11 5 9 22 14 47 15 82 1 28 32 23 105 -16 29 -15 64 -27 77 -26 13 1 41 -6
62 -17 70 -35 83 -38 83 -18 0 10 -3 17 -7 14 -4 -2 -9 1 -11 6 -2 6 -10 12
-18 14 -8 1 -26 8 -40 16 -14 8 -38 15 -55 16 -41 1 -85 14 -85 25 0 5 -9 9
-20 9 -11 0 -20 6 -20 14 0 8 -5 18 -12 22 -7 4 -8 3 -4 -4 8 -13 -4 -15 -27
-6 -14 5 -14 11 -2 49 7 24 11 46 8 49 -15 15 71 17 95 2 20 -12 14 8 -8 27
-33 28 -124 59 -185 62 -61 4 -66 5 -61 14 9 14 -16 19 -45 9z"/>
<path d="M2036 2447 c3 -10 9 -15 12 -12 3 3 0 11 -7 18 -10 9 -11 8 -5 -6z"/>
<path d="M2096 2442 c-3 -5 1 -9 9 -9 8 0 12 4 9 9 -3 4 -7 8 -9 8 -2 0 -6 -4
-9 -8z"/>
<path d="M1450 2416 c7 -7 13 -7 20 0 6 6 3 10 -10 10 -13 0 -16 -4 -10 -10z"/>
<path d="M1406 2408 c3 -5 10 -6 15 -3 13 9 11 12 -6 12 -8 0 -12 -4 -9 -9z"/>
<path d="M2555 2410 c3 -5 8 -10 11 -10 2 0 4 5 4 10 0 6 -5 10 -11 10 -5 0
-7 -4 -4 -10z"/>
<path d="M3245 2380 c-3 -5 -1 -10 4 -10 6 0 11 5 11 10 0 6 -2 10 -4 10 -3 0
-8 -4 -11 -10z"/>
<path d="M3275 2380 c-3 -5 -1 -10 4 -10 6 0 11 5 11 10 0 6 -2 10 -4 10 -3 0
-8 -4 -11 -10z"/>
<path d="M3376 2368 c3 -5 10 -6 15 -3 13 9 11 12 -6 12 -8 0 -12 -4 -9 -9z"/>
<path d="M1085 2360 c-3 -5 -1 -10 4 -10 6 0 11 5 11 10 0 6 -2 10 -4 10 -3 0
-8 -4 -11 -10z"/>
<path d="M640 2260 c-9 -6 -10 -10 -3 -10 6 0 15 5 18 10 8 12 4 12 -15 0z"/>
</g>
</svg>
